<svg id="fox-news-first" xmlns="http://www.w3.org/2000/svg" viewBox="0 0 300 52.47"><title>fox-news-first-logo</title><path id="foxnews" d="M6.84,29.76H0L5,.64H24L23,6.06H11L9.8,12.76h11l-.94,5.4h-11Zm30-2.58a10.43,10.43,0,0,1-7.76,3,9.05,9.05,0,0,1-5-1.43A8.2,8.2,0,0,1,21,24.84a11.79,11.79,0,0,1-.73-5.56,13.32,13.32,0,0,1,3.65-8.48,10.38,10.38,0,0,1,7.83-3.08,9.14,9.14,0,0,1,5,1.45,8.17,8.17,0,0,1,3.1,3.93,12.09,12.09,0,0,1,.71,5.6l0,.44A12.82,12.82,0,0,1,36.87,27.18ZM34.11,16.89A5,5,0,0,0,33.44,14a2.46,2.46,0,0,0-2.09-1.11,3.44,3.44,0,0,0-3,1.49,9.7,9.7,0,0,0-1.49,4.88l-.06,1.18q-.28,4.46,2.72,4.53,3.87.12,4.5-6.29ZM50.21,14l-2-5.92H41.62L45.4,18.36l-7.76,11.4h7.2l4.21-6.36,2.28,6.36h6.56l-4-10.8L61.31,8.12H54.19ZM94.81.64H88L84.79,19,77.85.64H71.17l-5,29.12H73l3.2-18.38,7,18.38h6.62Zm17.51,12.28a11.68,11.68,0,0,1,.6,5.42l-.38,2.74H99.66a4.27,4.27,0,0,0,1,2.76A3.51,3.51,0,0,0,103.3,25a6.82,6.82,0,0,0,5.14-2.2l2.76,3.65a8.11,8.11,0,0,1-3.41,2.72,12,12,0,0,1-4.79,1h-.36a10,10,0,0,1-5.17-1.37A8.67,8.67,0,0,1,94,25a10.15,10.15,0,0,1-.92-5.31l.06-.56a13.27,13.27,0,0,1,3.71-8.45,10.27,10.27,0,0,1,7.77-3,8.44,8.44,0,0,1,4.76,1.41A7.9,7.9,0,0,1,112.32,12.92ZM106.76,15a2.32,2.32,0,0,0-2.52-2.05,3.39,3.39,0,0,0-2.43.88A7.34,7.34,0,0,0,100,16.86h6.58l.12-.58A4.48,4.48,0,0,0,106.76,15Zm35.29-6.85h-6.44l-4.34,12.74L130.19,8.12h-4.58L120.07,21l.2-12.88h-6.18l1.2,21.64h5.58L126.57,17l1.24,12.76h5.54Zm12.07,10a16.76,16.76,0,0,0-4.3-1.53c-2.14-.4-3.09-1.14-2.86-2.22a2.25,2.25,0,0,1,1-1.57,3.23,3.23,0,0,1,1.86-.59c1.56,0,2.31.85,2.26,2.56l6.55,0a6.31,6.31,0,0,0-2.41-5.12,9.79,9.79,0,0,0-6.18-1.94,10.59,10.59,0,0,0-6.51,1.91,6.26,6.26,0,0,0-2.77,5.07,5.1,5.1,0,0,0,1.52,3.94,10.87,10.87,0,0,0,5.1,2.58l1.42.36q2.3.66,2,2a2.4,2.4,0,0,1-1.08,1.55,3.78,3.78,0,0,1-2.08.55c-1.9,0-2.86-.92-2.88-2.84l-6.12,0a6.67,6.67,0,0,0,1.17,3.79A7.73,7.73,0,0,0,143,29.18a10.12,10.12,0,0,0,4.35,1,12.7,12.7,0,0,0,5-.86,8.18,8.18,0,0,0,3.52-2.46,5.74,5.74,0,0,0,1.28-3.5,5.29,5.29,0,0,0-.74-3.08A6.42,6.42,0,0,0,154.12,18.11Z" transform="translate(0 0.08)" style="fill:#fff"/><path id="first" d="M171,14.32h14.45l-.16,1.12H170.84l-2.48,14.32h-1.08l5-29.12h17.49l-.14,1.08H173.22ZM194.42,1.4a.91.91,0,0,0-.21-.8.91.91,0,0,0-.75-.36,1.19,1.19,0,0,0-.79.34,1.33,1.33,0,0,0-.43.74.94.94,0,0,0,.2.78,1,1,0,0,0,.74.36,1.2,1.2,0,0,0,.8-.33A1.17,1.17,0,0,0,194.42,1.4Zm-6.53,28.36H189l3.72-21.64H191.6Zm9.61-14.17a9.54,9.54,0,0,1,3.08-4.81,7.47,7.47,0,0,1,5-2l1.3.1.26-.93a4.7,4.7,0,0,0-1.52-.25A7.77,7.77,0,0,0,201.23,9a10.73,10.73,0,0,0-3.31,3.61l.84-4.5h-1.08L194,29.76H195Zm18-7.87a9.09,9.09,0,0,0-5.19,1.5,5.59,5.59,0,0,0-2.6,4q-.57,3.8,4,5.3l2.21.64q6.21,1.57,5.48,5.34a4.82,4.82,0,0,1-2.36,3.29,9,9,0,0,1-4.75,1.33,6.94,6.94,0,0,1-4.49-1.29,4,4,0,0,1-1.49-3.53h-1.06A4.54,4.54,0,0,0,207,28.53a8.17,8.17,0,0,0,5.34,1.63,9.6,9.6,0,0,0,5.49-1.55,5.81,5.81,0,0,0,2.68-4.13c.39-2.61-1-4.49-4.08-5.62l-1-.34-3-.86c-2.86-.89-4.08-2.4-3.68-4.52A4.66,4.66,0,0,1,211.09,10a8.3,8.3,0,0,1,4.45-1.18,6.1,6.1,0,0,1,4.22,1.41,4.07,4.07,0,0,1,1.34,3.69h1.08a5,5,0,0,0-1.56-4.5A7.26,7.26,0,0,0,215.52,7.72Zm14.89-5.44h-1.1l-1,5.84h-3.9l-.16,1.08h3.86l-2.64,15.37a10.65,10.65,0,0,0-.14,2.09q.15,3.49,3.54,3.5a8.69,8.69,0,0,0,2.18-.24l0-1c-1.08.12-1.8.18-2.18.18a2.33,2.33,0,0,1-1.88-.79,3.12,3.12,0,0,1-.56-2.13l.08-1.1L229.21,9.2H234l.14-1.08h-4.74Z" transform="translate(0 0.08)" style="fill:#fff"/><path id="morning-headlines" d="M10.19,40.92h2.54V52.24h-2V48.51l.19-5L7.62,52.24H6.21L2.88,43.52l.19,5v3.73h-2V40.92H3.66L6.93,49.6ZM28,43.34a6.93,6.93,0,0,1,.59,2.91v.63A6.78,6.78,0,0,1,28,49.79a4.28,4.28,0,0,1-1.64,1.93,4.5,4.5,0,0,1-2.46.68,4.55,4.55,0,0,1-2.46-.68,4.38,4.38,0,0,1-1.66-1.91,6.69,6.69,0,0,1-.59-2.87V46.3a6.89,6.89,0,0,1,.58-2.92,4.36,4.36,0,0,1,1.66-1.94,4.49,4.49,0,0,1,2.45-.68,4.63,4.63,0,0,1,2.46.67A4.36,4.36,0,0,1,28,43.34Zm-1.38,2.94a5,5,0,0,0-.71-2.88,2.51,2.51,0,0,0-4,0,4.81,4.81,0,0,0-.74,2.82v.66a4.87,4.87,0,0,0,.73,2.88,2.34,2.34,0,0,0,2,1,2.3,2.3,0,0,0,2-1,5,5,0,0,0,.7-2.9ZM41,47.43l2.55,4.71v.1H41.4l-2.27-4.35H36.94v4.35H35V40.92h4a4.59,4.59,0,0,1,3,.88A3.11,3.11,0,0,1,43,44.34a3.17,3.17,0,0,1-.55,1.91A3.47,3.47,0,0,1,41,47.43Zm-.45-1.63a1.73,1.73,0,0,0,.56-1.37A1.87,1.87,0,0,0,40.56,43,2.22,2.22,0,0,0,39,42.5H36.94v3.8h2A2.26,2.26,0,0,0,40.51,45.8ZM56.4,49l-5.07-8.06h-2V52.24h2v-8l5.05,8h2V40.92h-2Zm8.85,3.26h2V40.92h-2ZM81.12,49l-5.07-8.06h-2V52.24h2v-8l5,8h2V40.92H81.12Zm13.12-1h2.33v2.21a2.82,2.82,0,0,1-2.15.69,2.56,2.56,0,0,1-2.15-1A4.62,4.62,0,0,1,91.5,47v-.87a4.89,4.89,0,0,1,.71-2.79,2.34,2.34,0,0,1,2-.95,2.16,2.16,0,0,1,2.37,2h1.93a4,4,0,0,0-1.34-2.69,4.53,4.53,0,0,0-3-.94,4.25,4.25,0,0,0-3.43,1.45,6,6,0,0,0-1.22,4v.89a6.45,6.45,0,0,0,.61,2.8,4.28,4.28,0,0,0,1.69,1.85,4.93,4.93,0,0,0,2.52.65A6.86,6.86,0,0,0,96.83,52a3.7,3.7,0,0,0,1.7-1.21V46.43H94.24Zm26.37-2.3h-5.07V40.92h-2V52.24h2v-5h5.07v5h2V40.92h-2Zm10.71,1.56H136V45.63h-4.65V42.5h5.38V40.92h-7.35V52.24h7.4V50.67h-5.43Zm16.53-6.27,4.28,11.32h-2l-.93-2.64h-4.38l-.92,2.64h-2l4.28-11.32Zm.75,7.1L147,43.32,145.32,48Zm17.08-4.54a6,6,0,0,1,.64,2.82v.57a6.12,6.12,0,0,1-.64,2.83,4.54,4.54,0,0,1-1.83,1.88,5.5,5.5,0,0,1-2.72.66h-3.26V40.92h3.35a5.18,5.18,0,0,1,2.66.67A4.5,4.5,0,0,1,165.68,43.48Zm-1.34,2.81a4.26,4.26,0,0,0-.8-2.81,2.83,2.83,0,0,0-2.32-1h-1.38v8.17h1.28a3,3,0,0,0,2.38-1,4.21,4.21,0,0,0,.84-2.78Zm10.36-5.37h-2V52.24h7.1V50.67H174.7Zm11.23,11.32h2V40.92h-2ZM201.8,49l-5.07-8.06h-2V52.24h2v-8l5.05,8h2V40.92H201.8Zm10.7-1.79h4.65V45.63H212.5V42.5h5.38V40.92h-7.35V52.24h7.41V50.67H212.5Zm17.83-.55a8.75,8.75,0,0,0-2.12-.9,7,7,0,0,1-1.9-.8,1.26,1.26,0,0,1-.57-1,1.37,1.37,0,0,1,.53-1.15,2.39,2.39,0,0,1,1.5-.42,2.27,2.27,0,0,1,1.59.51,1.75,1.75,0,0,1,.55,1.38h2a3.19,3.19,0,0,0-.52-1.78,3.47,3.47,0,0,0-1.46-1.24,4.91,4.91,0,0,0-2.11-.44,4.51,4.51,0,0,0-2.89.89,2.74,2.74,0,0,0-1.12,2.25,2.91,2.91,0,0,0,1.55,2.54,9.13,9.13,0,0,0,2.18.92,6.21,6.21,0,0,1,1.89.81,1.5,1.5,0,0,1,0,2.26,2.49,2.49,0,0,1-1.55.41,2.78,2.78,0,0,1-1.82-.53,1.81,1.81,0,0,1-.64-1.49h-2a3.16,3.16,0,0,0,.57,1.87,3.82,3.82,0,0,0,1.6,1.25,5.44,5.44,0,0,0,2.26.46,4.72,4.72,0,0,0,3-.84,2.7,2.7,0,0,0,1.08-2.25,3,3,0,0,0-.37-1.52A3.34,3.34,0,0,0,230.33,46.64Z" transform="translate(0 0.08)" style="fill:#fff"/><circle cx="271.46" cy="30.79" r="18.43" style="fill:#fff"/><g id="clock"><path id="dot" d="M272.05,30.26a.82.82,0,0,0-.81.82h0a.8.8,0,0,0,.24.58.82.82,0,0,0,.58.23h0a.82.82,0,0,0,.82-.82.81.81,0,0,0-.25-.58.79.79,0,0,0-.57-.23Z" transform="translate(0 0.08)" style="fill:#ffd633"/><path id="stroke" d="M272,14.88l-.81,0a16.2,16.2,0,0,0,.86,32.37h.05a16.2,16.2,0,0,0-.05-32.39Zm11.9,6.43A15.36,15.36,0,0,1,284,40.76q-.48.59-1,1.14a15.31,15.31,0,0,1-10.84,4.53h-.05a15.27,15.27,0,0,1-10.27-3.94l-.06-.05-.5-.48a15.31,15.31,0,0,1-4.53-10.84h0A15.36,15.36,0,0,1,272,15.72h.05a15.29,15.29,0,0,1,10.82,4.46C283.24,20.55,283.59,20.92,283.91,21.31Zm-11.9-5a.42.42,0,0,1,.42.42v4.35a.42.42,0,0,1-.42.42h0a.42.42,0,0,1-.42-.42l0-4.35a.42.42,0,0,1,.42-.42ZM286.78,31h0a.42.42,0,0,1-.42.42H282a.42.42,0,0,1-.42-.42.42.42,0,0,1,.42-.42h4.35A.42.42,0,0,1,286.78,31ZM264.5,18.92a.42.42,0,0,1,.73-.42l1.3,2.24a.41.41,0,0,1-.15.57.42.42,0,0,1-.21.06.44.44,0,0,1-.37-.21Zm-5.22,4.83a.42.42,0,0,1,.58-.15l2.24,1.28a.42.42,0,0,1-.21.79.42.42,0,0,1-.21-.06l-2.24-1.28A.44.44,0,0,1,259.28,23.75Zm-1.95,7.37a.42.42,0,0,1,.42-.42h4.35a.43.43,0,0,1,0,.85h-4.35A.42.42,0,0,1,257.33,31.12Zm4.81,6.21-2.24,1.3a.37.37,0,0,1-.21.06.43.43,0,0,1-.36-.21.42.42,0,0,1,.15-.58l2.24-1.3a.41.41,0,0,1,.57.15A.42.42,0,0,1,262.14,37.33Zm4.46,4.12-1.29,2.24a.42.42,0,0,1-.37.21.41.41,0,0,1-.21,0,.42.42,0,0,1-.15-.58L265.87,41a.42.42,0,0,1,.57-.16A.44.44,0,0,1,266.6,41.45Zm13,1.78a.41.41,0,0,1-.15.57.42.42,0,0,1-.21.06.44.44,0,0,1-.37-.21l-1.3-2.24a.42.42,0,0,1,.73-.42Zm5.22-4.83a.43.43,0,0,1-.36.21.37.37,0,0,1-.21-.06L282,37.27a.43.43,0,0,1,.42-.74l2.25,1.29A.42.42,0,0,1,284.83,38.4ZM282,24.82l2.24-1.3a.41.41,0,0,1,.57.15.42.42,0,0,1-.15.58l-2.23,1.3a.43.43,0,0,1-.22.06.43.43,0,0,1-.36-.21A.42.42,0,0,1,282,24.82Zm-4.45-4.12,1.28-2.24a.43.43,0,0,1,.58-.16.41.41,0,0,1,.15.57l-1.28,2.25a.42.42,0,0,1-.37.21.54.54,0,0,1-.21,0A.42.42,0,0,1,277.52,20.7Zm-5.47,8.71a1.6,1.6,0,0,0-.91.28l-7.84-7a.41.41,0,0,0-.59,0,.43.43,0,0,0,0,.6l7.84,7a1.52,1.52,0,0,0-.18.76,1.62,1.62,0,0,0,.49,1.17,1.66,1.66,0,0,0,1.17.49h0a1.67,1.67,0,0,0,1.66-1.67,1.61,1.61,0,0,0-.19-.75l5.55-5a.41.41,0,0,0,0-.59.41.41,0,0,0-.59,0l-5.55,5a1.63,1.63,0,0,0-.91-.28Zm.83,1.66a.82.82,0,0,1-.82.82h0a.82.82,0,0,1-.58-.23.8.8,0,0,1-.24-.58h0a.82.82,0,0,1,.81-.82h0a.79.79,0,0,1,.57.23A.81.81,0,0,1,272.88,31.07ZM270.2,17.85l-.1-1a.41.41,0,0,1,.37-.46.43.43,0,0,1,.47.37l.1,1a.43.43,0,0,1-.37.47h-.05A.43.43,0,0,1,270.2,17.85Zm-1.57-.67a.42.42,0,1,1,.82-.18l.2.94a.42.42,0,0,1-.32.5h-.09a.42.42,0,0,1-.41-.33Zm-1.44.44a.43.43,0,0,1,.81-.27l.29.91a.42.42,0,0,1-.27.54l-.13,0a.44.44,0,0,1-.4-.29Zm-1.38.58a.43.43,0,0,1,.22-.56.42.42,0,0,1,.55.21l.4.88a.41.41,0,0,1-.22.55.33.33,0,0,1-.17,0,.41.41,0,0,1-.38-.25Zm-2.54,1.58a.43.43,0,0,1,.1-.59.41.41,0,0,1,.58.09l.57.77a.42.42,0,0,1-.09.59.39.39,0,0,1-.25.08.42.42,0,0,1-.34-.17Zm-1.13,1a.42.42,0,1,1,.63-.57l.64.71a.44.44,0,0,1,0,.6.43.43,0,0,1-.28.11.45.45,0,0,1-.32-.14Zm-1,1.09a.41.41,0,0,1,0-.59.43.43,0,0,1,.6,0l.71.64a.43.43,0,0,1,0,.6.45.45,0,0,1-.32.14.43.43,0,0,1-.28-.11Zm-.91,1.2a.42.42,0,0,1-.09-.59.43.43,0,0,1,.59-.1l.77.56a.42.42,0,0,1-.24.77.44.44,0,0,1-.25-.08Zm-1.62,2.08a.41.41,0,0,1,.55-.22l.88.39a.43.43,0,0,1-.17.81.47.47,0,0,1-.17,0l-.88-.39A.41.41,0,0,1,258.59,25.13ZM258,26.57a.41.41,0,0,1,.53-.27l.91.29a.41.41,0,0,1,.27.53.41.41,0,0,1-.4.29.32.32,0,0,1-.13,0l-.91-.29A.42.42,0,0,1,258,26.57Zm-.39,1.49a.41.41,0,0,1,.49-.33l.94.2a.42.42,0,0,1,.33.5.42.42,0,0,1-.41.33h-.09l-.94-.19A.42.42,0,0,1,257.65,28.06Zm-.24,1.52a.42.42,0,0,1,.46-.38l.95.1a.42.42,0,0,1,.38.46.42.42,0,0,1-.42.38h0l-.95-.1A.42.42,0,0,1,257.41,29.58Zm.43,3.46a.42.42,0,0,1-.42-.38.41.41,0,0,1,.37-.46l.95-.11a.43.43,0,0,1,.47.38.42.42,0,0,1-.37.46l-1,.1Zm.24,1.47a.42.42,0,0,1-.09-.83l.93-.2a.41.41,0,0,1,.5.32.42.42,0,0,1-.32.5l-.93.2Zm.52,1.43-.13,0a.42.42,0,0,1-.4-.29.42.42,0,0,1,.27-.53l.91-.3a.41.41,0,0,1,.53.27.42.42,0,0,1-.27.53Zm1.46,1-.88.4a.47.47,0,0,1-.17,0,.41.41,0,0,1-.38-.25.4.4,0,0,1,.21-.55l.87-.39a.42.42,0,0,1,.56.21A.42.42,0,0,1,260.06,36.92Zm1.47,2.37-.77.57a.42.42,0,1,1-.5-.68l.78-.57a.42.42,0,1,1,.49.68Zm.92,1.06-.71.64a.43.43,0,0,1-.28.11.41.41,0,0,1-.31-.14.41.41,0,0,1,0-.59l.71-.65a.42.42,0,0,1,.56.63Zm1,.95-.64.71a.38.38,0,0,1-.31.14.42.42,0,0,1-.28-.1.43.43,0,0,1,0-.6l.64-.71a.42.42,0,0,1,.62.56Zm1.12.84-.56.78a.42.42,0,0,1-.34.17.38.38,0,0,1-.25-.08.41.41,0,0,1-.09-.58l.56-.78a.42.42,0,0,1,.58-.1A.43.43,0,0,1,264.59,42.14Zm2.46,1.31-.38.88a.42.42,0,0,1-.39.25.35.35,0,0,1-.17,0,.41.41,0,0,1-.21-.55l.38-.88a.42.42,0,0,1,.56-.21A.41.41,0,0,1,267.05,43.45Zm1.32.46-.29.91a.42.42,0,0,1-.4.29.3.3,0,0,1-.13,0,.42.42,0,0,1-.27-.53l.29-.91a.42.42,0,0,1,.53-.27A.41.41,0,0,1,268.37,43.91Zm1.37.31-.2.94a.42.42,0,0,1-.41.33H269a.43.43,0,0,1-.33-.5l.2-.94a.42.42,0,0,1,.5-.33A.43.43,0,0,1,269.74,44.22Zm1.38.17-.09,1a.43.43,0,0,1-.42.37h-.05a.41.41,0,0,1-.37-.46l.09-.95a.43.43,0,0,1,.47-.38A.41.41,0,0,1,271.12,44.39Zm1.4,0v1a.41.41,0,0,1-.3.4H272a.43.43,0,0,1-.34-.41V42.79h0V41a.42.42,0,1,1,.84,0v3.38Zm1.39-.12.11,1a.42.42,0,0,1-.38.46h0a.41.41,0,0,1-.42-.37l-.11-1a.44.44,0,0,1,.38-.47A.42.42,0,0,1,273.91,44.3Zm1.58.67a.43.43,0,0,1-.33.5h-.09a.43.43,0,0,1-.41-.34l-.2-.93a.42.42,0,0,1,.32-.5.42.42,0,0,1,.5.32Zm1.43-.44a.42.42,0,0,1-.27.53.3.3,0,0,1-.13,0,.42.42,0,0,1-.4-.29l-.3-.91a.42.42,0,0,1,.8-.26ZM278.3,44a.42.42,0,0,1-.21.56l-.17,0a.41.41,0,0,1-.39-.25l-.39-.87a.42.42,0,0,1,.21-.56.43.43,0,0,1,.56.22Zm2.54-1.58a.42.42,0,0,1-.09.59.46.46,0,0,1-.25.08.42.42,0,0,1-.34-.17l-.57-.78a.42.42,0,0,1,.1-.58.41.41,0,0,1,.58.09Zm1.13-1a.42.42,0,0,1-.62.57l-.64-.71a.42.42,0,0,1,0-.6.42.42,0,0,1,.59,0Zm1-1.09a.42.42,0,0,1,0,.59.39.39,0,0,1-.31.14.46.46,0,0,1-.29-.1l-.71-.64a.43.43,0,0,1,0-.6.41.41,0,0,1,.59,0Zm.9-1.2a.43.43,0,0,1,.1.59.44.44,0,0,1-.35.18.43.43,0,0,1-.24-.08l-.78-.56a.42.42,0,0,1,.49-.69ZM285.53,37a.42.42,0,0,1-.39.25.51.51,0,0,1-.17,0l-.87-.39a.42.42,0,1,1,.34-.77l.87.39A.42.42,0,0,1,285.53,37Zm.54-1.44a.41.41,0,0,1-.4.29.32.32,0,0,1-.13,0l-.91-.29a.42.42,0,1,1,.26-.8l.91.29A.41.41,0,0,1,286.07,35.58Zm.4-1.49a.42.42,0,0,1-.41.33H286l-.94-.2a.42.42,0,0,1-.32-.5.41.41,0,0,1,.49-.32l.94.19A.42.42,0,0,1,286.47,34.09Zm.24-1.52a.44.44,0,0,1-.42.38h-.05l-.95-.09a.43.43,0,0,1-.38-.46.43.43,0,0,1,.47-.38l.95.1A.42.42,0,0,1,286.71,32.57Zm-.48-3.45a.42.42,0,1,1,.09.83l-.95.11h-.05a.42.42,0,0,1,0-.84ZM286,27.64a.43.43,0,0,1,.5.33.42.42,0,0,1-.32.5l-.94.2h-.09a.42.42,0,0,1-.41-.33.42.42,0,0,1,.32-.5Zm-.44-1.43a.43.43,0,0,1,.54.27.42.42,0,0,1-.27.53l-.91.3a.32.32,0,0,1-.13,0,.42.42,0,0,1-.14-.82Zm-1.45-1,.87-.39a.42.42,0,1,1,.35.77l-.88.39a.33.33,0,0,1-.17,0,.41.41,0,0,1-.38-.25A.42.42,0,0,1,284.06,25.22Zm-1.48-2.36.77-.57a.42.42,0,1,1,.5.68l-.77.57a.46.46,0,0,1-.25.08.42.42,0,0,1-.34-.17A.42.42,0,0,1,282.58,22.86Zm-.92-1.06.71-.64a.42.42,0,1,1,.57.62l-.71.65a.42.42,0,0,1-.28.1.42.42,0,0,1-.29-.73Zm-1-.95.64-.72a.42.42,0,0,1,.63.57l-.64.71a.41.41,0,0,1-.59,0A.41.41,0,0,1,280.64,20.85ZM279.53,20l.56-.78a.42.42,0,0,1,.68.49l-.56.78a.42.42,0,0,1-.34.17.39.39,0,0,1-.25-.08A.41.41,0,0,1,279.53,20Zm-2.47-1.31.39-.88a.42.42,0,0,1,.55-.22.43.43,0,0,1,.22.56l-.39.88a.43.43,0,0,1-.38.25.33.33,0,0,1-.17,0A.41.41,0,0,1,277.06,18.7Zm-1.32-.46.29-.91a.42.42,0,0,1,.53-.27.43.43,0,0,1,.28.53l-.3.91a.42.42,0,0,1-.4.29l-.13,0A.42.42,0,0,1,275.74,18.24Zm-1.36-.31.2-.94a.42.42,0,1,1,.82.17l-.2.94a.41.41,0,0,1-.41.33h-.09A.41.41,0,0,1,274.38,17.93ZM273,17.76l.1-1a.41.41,0,0,1,.46-.37.42.42,0,0,1,.38.46l-.1.95a.42.42,0,0,1-.42.38h0A.43.43,0,0,1,273,17.76Zm18,.95a.42.42,0,0,0,.26.1h.05a.39.39,0,0,0,.28-.15A5.64,5.64,0,0,0,291,11l.12-.14a1.49,1.49,0,0,0,.31-1,1.36,1.36,0,0,0-.52-.94,1.41,1.41,0,0,0-2,.2l-.1.13,0,0a5.62,5.62,0,0,0-7.91.8.43.43,0,0,0,.06.6l4.73,3.86-.83,1a20.15,20.15,0,0,0-11.07-4.52V9.5h1.13a.73.73,0,0,0,.73-.73h0V6.42a.73.73,0,0,0-.21-.52.76.76,0,0,0-.52-.21h0l-5.9,0a.73.73,0,0,0-.52.22.69.69,0,0,0-.21.51V8.78a.72.72,0,0,0,.72.73h1v1.42a20.21,20.21,0,0,0-10.91,4.55l-.86-1,4.7-3.88a.39.39,0,0,0,.15-.28.44.44,0,0,0-.09-.31,5.63,5.63,0,0,0-7.92-.76l0,0L255,9.15a1.41,1.41,0,1,0-2.17,1.8h0l.12.14a5.61,5.61,0,0,0-.5,7.68.42.42,0,0,0,.32.16.45.45,0,0,0,.27-.1L257.66,15l.87,1a20.21,20.21,0,0,0,.48,30.5l-2.13,3.7a1.35,1.35,0,0,0,2.34,1.34l2-3.44a20.16,20.16,0,0,0,10.88,3.18h.06A20,20,0,0,0,283,48.06l2,3.43h0a1.34,1.34,0,0,0,2.32-1.36l-2.15-3.69A20.2,20.2,0,0,0,285.52,16l.85-1Zm-37.42-9.1a.57.57,0,0,1,.79.08l.11.13-.87.72-.11-.13A.57.57,0,0,1,253.57,9.61Zm-.72,8.29a4.78,4.78,0,0,1,.9-6.4l.06,0h0l1.52-1.26h0l.35-.29a4.78,4.78,0,0,1,3-1.09,3.54,3.54,0,0,1,.46,0,4.77,4.77,0,0,1,3,1.4Zm16.3-9.23V6.55h5.68V8.65h-5.68ZM273,10.86c-.3,0-.61,0-.91,0H272l-1.07,0V9.51h2ZM258.49,51.15a.51.51,0,0,1-.69.18.49.49,0,0,1-.18-.68l2.05-3.59q.4.31.81.6Zm28.13-.59a.49.49,0,0,1-.18.68.51.51,0,0,1-.69-.18l-2-3.47c.27-.19.54-.4.8-.6ZM291.45,31a19.41,19.41,0,0,1-19.33,19.46h-.06A19.4,19.4,0,0,1,272,11.68h.06A19.41,19.41,0,0,1,291.45,31ZM289.62,9.58a.57.57,0,0,1,1,.3.55.55,0,0,1-.13.41l-.1.13-.88-.71Zm-7.77.6a4.69,4.69,0,0,1,2.94-1.42,4.75,4.75,0,0,1,3.51,1.05l.35.29h0l1.53,1.24h0l.06,0a4.8,4.8,0,0,1,.94,6.39Zm12.61-5.54A4.88,4.88,0,0,1,296.21,8a.42.42,0,0,1-.38.46h0a.43.43,0,0,1-.42-.38A4.06,4.06,0,0,0,291,4.37a.42.42,0,0,1-.46-.38.42.42,0,0,1,.38-.46A4.87,4.87,0,0,1,294.46,4.64ZM300,9.35a.42.42,0,0,1-.38.46h0a.42.42,0,0,1-.42-.38A9.55,9.55,0,0,0,288.78.81a.42.42,0,0,1-.45-.38.42.42,0,0,1,.38-.46A10.37,10.37,0,0,1,300,9.35ZM253.24,4.53a4.08,4.08,0,0,0-4.15,4,.41.41,0,0,1-.42.41h0a.41.41,0,0,1-.41-.43,4.9,4.9,0,0,1,5-4.81.42.42,0,0,1,0,.84ZM254.88.92a9.55,9.55,0,0,0-9.72,9.36.41.41,0,0,1-.42.41h0a.42.42,0,0,1-.41-.43A10.39,10.39,0,0,1,254.7.08h.2a.42.42,0,0,1,.41.43A.42.42,0,0,1,254.88.92Z" transform="translate(0 0.08)" style="fill:#74000e"/><path id="fill" d="M270.92,9.51h2v1.36c-.3,0-.61,0-.91,0H272l-1.07,0ZM291.45,31a19.41,19.41,0,0,1-19.33,19.46h-.06A19.4,19.4,0,0,1,272,11.68h.06A19.41,19.41,0,0,1,291.45,31ZM254.6,26.67A.47.47,0,0,0,254,27a18.89,18.89,0,0,0-.39,2.7.46.46,0,0,0,.43.5h0a.48.48,0,0,0,.47-.43,17,17,0,0,1,.38-2.56A.48.48,0,0,0,254.6,26.67Zm1.25-2.27A17.48,17.48,0,0,1,272,13.55a.47.47,0,0,0,0-.94h0A18.43,18.43,0,0,0,255,24a.48.48,0,0,0,.26.62.57.57,0,0,0,.18,0A.48.48,0,0,0,255.85,24.4ZM288.25,31a16.2,16.2,0,0,0-16.19-16.14H272l-.81,0a16.2,16.2,0,0,0,.86,32.37h.05A16.2,16.2,0,0,0,288.25,31Zm2-19.63-.06,0h0l-1.53-1.24h0l-.35-.29a4.75,4.75,0,0,0-3.51-1.05,4.69,4.69,0,0,0-2.94,1.42l9.33,7.6A4.8,4.8,0,0,0,290.24,11.39Zm.25-1.1a.55.55,0,0,0,.13-.41.57.57,0,0,0-1-.3l-.11.13.88.71Zm-20-1.63h4.34V6.54h-5.68V8.67ZM253.6,10.54l.87-.72-.11-.13a.56.56,0,1,0-.87.72Zm8.54-.3a4.77,4.77,0,0,0-3-1.4,3.54,3.54,0,0,0-.46,0,4.78,4.78,0,0,0-3,1.09l-.35.29h0l-1.52,1.26-.06,0a4.78,4.78,0,0,0-.9,6.4Z" transform="translate(0 0.08)" style="fill:#f26a7a"/><path id="legs" d="M259.67,47.06q.4.31.81.6l-2,3.49a.51.51,0,0,1-.69.18.49.49,0,0,1-.18-.68Zm24.07.53,2,3.47a.51.51,0,0,0,.69.18.49.49,0,0,0,.18-.68L284.54,47C284.28,47.19,284,47.4,283.74,47.59Z" transform="translate(0 0.08)" style="fill:#a7c6e5"/></g><polygon points="369.37 -78.81 369.37 -78.81 369.37 -78.81 369.37 -78.81 369.37 -78.81" style="fill:#fff"/></svg>