<svg xmlns="http://www.w3.org/2000/svg" width="261" height="44.6" viewBox="0 0 261 44.6"><defs><style>.a{fill:#036;}.b{fill:#1b4e81;}.c{fill:#5787b8;}.d{fill:#f26a7a;}.e{fill:#a7c6e5;}.f{fill:#74000e;}.g{fill:#ffd633;}.h{fill:#fff;}</style></defs><title>fox-news-first</title><path class="a" d="M8.61,11l1-5.89H20.25L21.08.38H4.43L0,26H6l1.78-10.2h9.65L18.26,11Zm27.08,5.22a10.66,10.66,0,0,0-.62-4.92,7.18,7.18,0,0,0-2.73-3.45A8,8,0,0,0,27.92,6.6,9.09,9.09,0,0,0,21,9.31a11.72,11.72,0,0,0-3.21,7.45,10.35,10.35,0,0,0,.64,4.89,7.22,7.22,0,0,0,2.73,3.42,8,8,0,0,0,4.38,1.26,9.15,9.15,0,0,0,6.82-2.62,11.27,11.27,0,0,0,3.25-7.07Zm-5.78,0q-.55,5.63-4,5.53-2.64-.07-2.39-4l.05-1a8.55,8.55,0,0,1,1.31-4.29,3,3,0,0,1,2.63-1.31,2.15,2.15,0,0,1,1.84,1A4.31,4.31,0,0,1,30,14.66ZM47.64,7l-3.5,5.2L42.4,7H36.58l3.32,9L33.09,26h6.33l3.71-5.59,2,5.59h5.77l-3.48-9.49L53.9,7ZM77.33.38,74.54,16.53,68.44.38H62.57L58.14,26h6L67,9.82,73.08,26H78.9L83.35.38ZM96.19,7.84A7.36,7.36,0,0,0,92,6.6a9,9,0,0,0-6.83,2.63,11.66,11.66,0,0,0-3.26,7.43l-.05.49a8.88,8.88,0,0,0,.81,4.67,7.58,7.58,0,0,0,3,3.3,8.84,8.84,0,0,0,4.54,1.2h.32a10.54,10.54,0,0,0,4.21-.9,7.16,7.16,0,0,0,3-2.39l-2.43-3.21a6,6,0,0,1-4.52,1.93,3.1,3.1,0,0,1-2.36-1,3.71,3.71,0,0,1-.84-2.43H98.93l.33-2.41a10.2,10.2,0,0,0-.53-4.76A6.94,6.94,0,0,0,96.19,7.84Zm-2.37,6.28-.11.51H87.93a6.46,6.46,0,0,1,1.57-2.69,3,3,0,0,1,2.14-.77A2,2,0,0,1,93.85,13,3.86,3.86,0,0,1,93.81,14.13ZM119.21,7l-3.81,11.2L114.44,7h-4l-4.87,11.32L105.73,7h-5.43l1.05,19h4.9l5-11.21L112.35,26h4.87l7.65-19Zm16.27,8.78a14.62,14.62,0,0,0-3.78-1.34q-2.81-.53-2.51-2a2,2,0,0,1,.9-1.38,2.83,2.83,0,0,1,1.63-.52q2.06,0,2,2.25l5.77,0a5.56,5.56,0,0,0-2.12-4.5,8.59,8.59,0,0,0-5.44-1.71,9.27,9.27,0,0,0-5.72,1.68,5.52,5.52,0,0,0-2.43,4.46,4.49,4.49,0,0,0,1.34,3.46,9.61,9.61,0,0,0,4.48,2.27l1.25.32q2,.58,1.79,1.74a2.09,2.09,0,0,1-.95,1.36,3.32,3.32,0,0,1-1.83.48,2.22,2.22,0,0,1-2.53-2.5l-5.38,0a6,6,0,0,0,1,3.33,6.82,6.82,0,0,0,2.76,2.29,8.94,8.94,0,0,0,3.82.86,11.12,11.12,0,0,0,4.4-.76A7.28,7.28,0,0,0,137,23.4a5.08,5.08,0,0,0,1.13-3.08,4.7,4.7,0,0,0-.65-2.71A5.65,5.65,0,0,0,135.48,15.73Z"/><path class="b" d="M152.1,1.68h14.47l.12-.95H151.31l-4.43,25.59h.95L150,13.74h12.73l.14-1H150.17ZM165,26.32h.95l3.27-19h-.95ZM170.75,1.4a.84.84,0,0,0-.18-.7.81.81,0,0,0-.66-.32,1,1,0,0,0-.69.3,1.11,1.11,0,0,0-.38.65A.8.8,0,0,0,169,2a.85.85,0,0,0,.65.32,1.06,1.06,0,0,0,.7-.29A1.06,1.06,0,0,0,170.75,1.4ZM181.67,8l.23-.82A4.35,4.35,0,0,0,180.57,7a6.82,6.82,0,0,0-3.83,1.13,9.39,9.39,0,0,0-2.92,3.17l.74-4h-.95l-3.27,19h.95l2.16-12.45a8.43,8.43,0,0,1,2.71-4.23,6.59,6.59,0,0,1,4.38-1.74Zm7.62-1a8,8,0,0,0-4.57,1.32,4.93,4.93,0,0,0-2.29,3.48q-.49,3.34,3.55,4.66l2,.56q5.45,1.39,4.82,4.69a4.26,4.26,0,0,1-2.07,2.89,8,8,0,0,1-4.18,1.17,6.11,6.11,0,0,1-3.95-1.13,3.56,3.56,0,0,1-1.31-3.1h-.93a4,4,0,0,0,1.51,3.75,7.2,7.2,0,0,0,4.69,1.43,8.44,8.44,0,0,0,4.83-1.36,5.14,5.14,0,0,0,2.36-3.63q.51-3.44-3.59-4.94l-.88-.3-2.62-.76q-3.76-1.18-3.23-4a4.11,4.11,0,0,1,2-2.78,7.28,7.28,0,0,1,3.92-1A5.36,5.36,0,0,1,193,9.14a3.59,3.59,0,0,1,1.18,3.24h.95a4.45,4.45,0,0,0-1.37-4A6.4,6.4,0,0,0,189.29,7Zm12,1.3h4.22l.12-.95H201.5l.88-5.13h-1l-.88,5.13h-3.43l-.14.95h3.39L198,21.76a8.84,8.84,0,0,0-.12,1.83q.12,3.08,3.11,3.08a7.66,7.66,0,0,0,1.92-.21l0-.9q-1.42.16-1.92.16a2,2,0,0,1-1.65-.69,2.71,2.71,0,0,1-.49-1.87l.07-1Z"/><path class="c" d="M5.11,42.14,2.24,34.51H0v10H1.72V41.18L1.55,36.8l2.93,7.66H5.72L8.66,36.8l-.17,4.39v3.28h1.72v-10H8Zm17-7.18a4.25,4.25,0,0,0-4.31,0,3.88,3.88,0,0,0-1.46,1.71,6.05,6.05,0,0,0-.52,2.57v.56a5.91,5.91,0,0,0,.52,2.52A3.88,3.88,0,0,0,17.85,44a4.24,4.24,0,0,0,4.32,0,3.83,3.83,0,0,0,1.45-1.7,6.11,6.11,0,0,0,.51-2.57v-.55a6,6,0,0,0-.52-2.55A3.83,3.83,0,0,0,22.15,35Zm.24,4.79a4.41,4.41,0,0,1-.62,2.56,2,2,0,0,1-1.77.88,2.06,2.06,0,0,1-1.77-.9,4.32,4.32,0,0,1-.64-2.54v-.57a4.27,4.27,0,0,1,.65-2.48,2.21,2.21,0,0,1,3.53,0,4.35,4.35,0,0,1,.63,2.54Zm14-.55a2.8,2.8,0,0,0,.48-1.67,2.74,2.74,0,0,0-.94-2.24,4.07,4.07,0,0,0-2.66-.77h-3.5v10h1.73V40.64h1.93l2,3.83h1.85v-.09L35,40.23A3.07,3.07,0,0,0,36.38,39.2Zm-3.11,0H31.49V35.91h1.83a1.93,1.93,0,0,1,1.36.45,1.64,1.64,0,0,1,.45,1.24,1.54,1.54,0,0,1-.49,1.21A2,2,0,0,1,33.27,39.24ZM48.6,41.6l-4.45-7.09H42.42v10h1.73V37.4l4.44,7.06h1.73v-10H48.6Zm7.78,2.86H58.1v-10H56.38ZM70.33,41.6l-4.45-7.09H64.15v10h1.73V37.4l4.44,7.06H72v-10H70.33Zm11.54-.93h2.05v1.95a2.49,2.49,0,0,1-1.89.6,2.24,2.24,0,0,1-1.89-.89,4,4,0,0,1-.68-2.5v-.76a4.26,4.26,0,0,1,.63-2.46,2,2,0,0,1,1.77-.84,1.91,1.91,0,0,1,2.08,1.8h1.7a3.55,3.55,0,0,0-1.18-2.37,4,4,0,0,0-2.64-.82,3.75,3.75,0,0,0-3,1.27,5.27,5.27,0,0,0-1.08,3.52v.78a5.68,5.68,0,0,0,.54,2.46A3.78,3.78,0,0,0,79.75,44,4.28,4.28,0,0,0,82,44.6a6.11,6.11,0,0,0,2.17-.36,3.31,3.31,0,0,0,1.5-1.07V39.36H81.86Zm23.18-2h-4.45V34.51H98.86v10h1.73V40H105v4.42h1.72v-10H105ZM114.46,40h4.09V38.65h-4.09V35.91h4.73V34.51h-6.46v10h6.51V43.08h-4.78Zm13-5.51-3.76,10h1.8l.81-2.32h3.86l.81,2.32h1.8l-3.77-10Zm-.67,6.24,1.44-4.13,1.44,4.13Zm16.32-5.65a4.61,4.61,0,0,0-2.34-.59H137.8v10h2.86a4.82,4.82,0,0,0,2.39-.58,4,4,0,0,0,1.61-1.65,5.27,5.27,0,0,0,.56-2.49v-.5a5.29,5.29,0,0,0-.56-2.47A4,4,0,0,0,143.09,35.1Zm.41,4.69a3.71,3.71,0,0,1-.74,2.44,2.6,2.6,0,0,1-2.09.85h-1.13V35.91h1.21a2.5,2.5,0,0,1,2,.85,3.8,3.8,0,0,1,.7,2.47Zm9.11-5.28h-1.73v10h6.25V43.08H152.6Zm9.87,10h1.72v-10h-1.72Zm13.95-2.86L172,34.51h-1.73v10H172V37.4l4.44,7.06h1.73v-10h-1.72ZM185.83,40h4.09V38.65h-4.09V35.91h4.73V34.51H184.1v10h6.51V43.08h-4.78Zm16.71.53a3,3,0,0,0-1-1,7.67,7.67,0,0,0-1.87-.79A5.82,5.82,0,0,1,198,38a1.09,1.09,0,0,1-.51-.91,1.21,1.21,0,0,1,.47-1,2.11,2.11,0,0,1,1.32-.36,2,2,0,0,1,1.4.44,1.56,1.56,0,0,1,.49,1.22h1.72a2.8,2.8,0,0,0-.46-1.57,3,3,0,0,0-1.28-1.09,4.3,4.3,0,0,0-1.85-.38,4,4,0,0,0-2.55.78,2.43,2.43,0,0,0-1,2,2.55,2.55,0,0,0,1.36,2.23,8,8,0,0,0,1.91.81,5.56,5.56,0,0,1,1.66.72,1.2,1.2,0,0,1,.46,1,1.18,1.18,0,0,1-.45,1,2.13,2.13,0,0,1-1.36.37,2.45,2.45,0,0,1-1.61-.46,1.61,1.61,0,0,1-.56-1.31h-1.73a2.75,2.75,0,0,0,.5,1.64,3.34,3.34,0,0,0,1.41,1.1,4.86,4.86,0,0,0,2,.4,4.14,4.14,0,0,0,2.59-.73,2.37,2.37,0,0,0,1-2A2.63,2.63,0,0,0,202.54,40.55Z"/><path class="d" d="M238.39,11.45h-2.46V7.79h2.46ZM240,5.52a.26.26,0,0,0-.26-.26l-5,0a.26.26,0,0,0-.26.26v2a.26.26,0,0,0,.26.26l5,0a.26.26,0,0,0,.26-.26Zm14.14,20.9A16.84,16.84,0,1,1,237.2,9.63,16.84,16.84,0,0,1,254.1,26.42Zm-3.44,0a13.41,13.41,0,1,0-13.36,13.45A13.41,13.41,0,0,0,250.66,26.43ZM229.33,8.81h0a4.42,4.42,0,0,0-6.23-.6l-1.64,1.35a4.42,4.42,0,0,0-.6,6.23h0Zm-8.14.33.32.39,1.29-1.07-.32-.39h0a.84.84,0,0,0-1.29,1.07Zm32.37,6.55h0a4.42,4.42,0,0,0-.64-6.22l-1.65-1.34a4.42,4.42,0,0,0-6.22.63h0ZM253.2,9A.84.84,0,0,0,251.9,8h0l-.32.39,1.3,1.06L253.2,9Z"/><path class="e" d="M226.62,39.56l1.29.89L226,43.71a.78.78,0,0,1-1.36-.78Zm23.32,3.3-2-3.39-1.29.9,1.9,3.29a.78.78,0,0,0,1.36-.79Z"/><path class="f" d="M236.52,12.73a13.76,13.76,0,0,0-9,23.51h0l.14.14a13.89,13.89,0,0,0,2,1.58,13.66,13.66,0,0,0,7.6,2.29h0A13.76,13.76,0,0,0,251,26.43h0c0-.33,0-.65,0-1a13.76,13.76,0,0,0-13.72-12.74h0Zm.73.7a13,13,0,0,1,9.2,3.79q.46.46.87,1a13.05,13.05,0,0,1,.05,16.53q-.41.5-.87,1a13,13,0,0,1-9.21,3.85h0a13,13,0,0,1-8.73-3.35l0,0-.42-.4a13,13,0,0,1-3.85-9.21h0a13,13,0,0,1,13-13.09ZM236.87,18V14.32a.36.36,0,0,1,.36-.36h0a.36.36,0,0,1,.36.36v2.2h0V18a.36.36,0,0,1-.36.36h0A.36.36,0,0,1,236.87,18Zm12.9,8.42h0a.36.36,0,0,1-.36.36h-3.69a.36.36,0,0,1,0-.72h3.69A.36.36,0,0,1,249.76,26.44ZM230.83,16.15a.36.36,0,1,1,.62-.36l1.1,1.9a.36.36,0,1,1-.62.36Zm-4.44,4.11a.36.36,0,0,1,.49-.13l1.91,1.09a.36.36,0,1,1-.36.62l-1.91-1.09A.36.36,0,0,1,226.4,20.25Zm-1.66,6.26a.36.36,0,0,1,.36-.36h3.69a.36.36,0,0,1,0,.72H225.1A.36.36,0,0,1,224.74,26.51Zm4.09,5.28-1.9,1.11a.36.36,0,1,1-.36-.62l1.9-1.11a.36.36,0,1,1,.36.62Zm3.79,3.5-1.09,1.91a.36.36,0,1,1-.62-.36L232,34.94a.36.36,0,1,1,.62.36Zm11.06,1.51a.36.36,0,0,1-.62.36l-1.11-1.9a.36.36,0,0,1,.62-.36Zm4.44-4.11a.36.36,0,0,1-.49.13l-1.91-1.09a.36.36,0,1,1,.36-.62L248,32.21A.36.36,0,0,1,248.11,32.7Zm-2.43-11.54,1.9-1.11a.36.36,0,1,1,.36.62L246,21.78a.36.36,0,1,1-.36-.62Zm-3.79-3.5L243,15.75a.36.36,0,0,1,.62.36L242.51,18a.36.36,0,0,1-.62-.36Zm-12.59,1.75a.36.36,0,0,0,0,.51L236,25.84a1.41,1.41,0,0,0,1.26,2.05h0a1.41,1.41,0,0,0,1.25-2.06l4.71-4.22a.36.36,0,0,0-.48-.53L238,25.3a1.4,1.4,0,0,0-.78-.23h0a1.4,1.4,0,0,0-.78.24l-6.66-5.92A.36.36,0,0,0,229.31,19.41Zm6.28-5a.36.36,0,0,1,.71-.08l.09.81a.36.36,0,0,1-.32.39h0a.36.36,0,0,1-.36-.32Zm-1.25.24a.36.36,0,0,1,.7-.15l.17.8a.36.36,0,0,1-.27.43h-.08a.36.36,0,0,1-.35-.28Zm-1.22.37a.36.36,0,1,1,.68-.22l.25.77a.36.36,0,0,1-.23.45l-.11,0a.36.36,0,0,1-.34-.25Zm-1.17.49a.36.36,0,0,1,.65-.29l.33.74a.36.36,0,1,1-.65.29Zm-2.16,1.34a.36.36,0,1,1,.58-.42l.48.66a.36.36,0,0,1-.58.42Zm-1,.83a.36.36,0,0,1,.53-.48l.55.6a.36.36,0,1,1-.53.48Zm-.9.42a.36.36,0,0,1,.51,0l.61.54a.36.36,0,0,1-.48.53l-.61-.54A.36.36,0,0,1,227.93,18.13Zm-.82,1a.36.36,0,0,1,.5-.08l.66.48a.36.36,0,0,1-.42.58l-.66-.48A.36.36,0,0,1,227.1,19.15Zm-1.3,2.27a.36.36,0,0,1,.47-.18l.74.33a.36.36,0,1,1-.29.66l-.74-.33A.36.36,0,0,1,225.8,21.42Zm-.47,1.22a.36.36,0,0,1,.45-.23l.78.25a.36.36,0,0,1-.11.7l-.11,0-.78-.25A.36.36,0,0,1,225.34,22.65ZM225,23.91a.36.36,0,0,1,.42-.28l.8.17a.36.36,0,0,1-.07.71h-.07l-.8-.17A.36.36,0,0,1,225,23.91Zm-.2,1.29a.36.36,0,0,1,.39-.32L226,25a.36.36,0,0,1,0,.71h0l-.81-.08A.36.36,0,0,1,224.8,25.21Zm.36,2.94a.36.36,0,0,1,0-.71l.81-.09a.36.36,0,1,1,.08.71l-.81.09Zm.2,1.26a.36.36,0,0,1-.08-.71l.8-.17a.36.36,0,1,1,.15.7l-.8.17Zm.45,1.21-.11,0a.36.36,0,0,1-.11-.7l.77-.25a.36.36,0,1,1,.22.68Zm1.24.84-.74.33a.36.36,0,1,1-.29-.65l.74-.33a.36.36,0,0,1,.29.65Zm1.26,2-.66.48a.36.36,0,1,1-.42-.58l.66-.48a.36.36,0,1,1,.42.58Zm.78.9-.6.55a.36.36,0,0,1-.48-.53l.6-.55a.36.36,0,0,1,.48.53Zm.87.81-.54.61a.36.36,0,0,1-.53-.48l.54-.61a.36.36,0,1,1,.53.48Zm.95.71-.48.66a.36.36,0,1,1-.58-.42l.48-.66a.36.36,0,1,1,.58.42ZM233,37l-.33.74a.36.36,0,1,1-.65-.29l.33-.74A.36.36,0,1,1,233,37Zm1.12.39-.25.78a.36.36,0,0,1-.34.25l-.11,0a.36.36,0,0,1-.23-.45l.25-.78a.36.36,0,0,1,.68.22Zm1.16.27-.17.8a.36.36,0,0,1-.35.28h-.07a.36.36,0,0,1-.28-.42l.17-.8a.36.36,0,0,1,.7.15Zm1.18.14-.08.81a.36.36,0,0,1-.36.32h0a.36.36,0,0,1-.32-.39l.08-.81a.36.36,0,0,1,.71.07Zm1.19,0v.81a.36.36,0,0,1-.25.34h-.18a.36.36,0,0,1-.29-.35v-2.2h0V34.94a.36.36,0,0,1,.36-.36.35.35,0,0,1,.36.36v2.88Zm1.27.71a.36.36,0,0,1-.32.39h0a.36.36,0,0,1-.36-.32l-.09-.81a.36.36,0,0,1,.71-.08Zm1.25-.24a.36.36,0,0,1-.27.43h-.08a.36.36,0,0,1-.35-.28l-.17-.8a.36.36,0,1,1,.7-.15Zm1.22-.37a.36.36,0,0,1-.23.45l-.11,0a.36.36,0,0,1-.34-.25l-.25-.77a.36.36,0,0,1,.68-.22Zm1.17-.49a.36.36,0,1,1-.65.29l-.33-.74a.36.36,0,0,1,.65-.29Zm2.16-1.34a.36.36,0,0,1-.58.42l-.48-.66a.36.36,0,0,1,.58-.42Zm1-.83a.36.36,0,1,1-.53.48l-.55-.6a.36.36,0,1,1,.53-.48Zm.87-.93a.36.36,0,0,1-.48.53l-.61-.54a.36.36,0,1,1,.48-.53Zm.85-.52a.36.36,0,0,1-.5.08l-.66-.48a.36.36,0,0,1,.42-.58l.66.48A.36.36,0,0,1,247.4,33.8Zm1.3-2.27a.36.36,0,0,1-.47.18l-.75-.33a.36.36,0,1,1,.29-.65l.75.33A.36.36,0,0,1,248.7,31.53Zm.47-1.22a.36.36,0,0,1-.34.25l-.11,0-.78-.25a.36.36,0,1,1,.22-.68l.78.25A.36.36,0,0,1,249.16,30.31ZM249.5,29a.36.36,0,0,1-.35.28h-.07l-.8-.17a.36.36,0,1,1,.15-.7l.8.17A.36.36,0,0,1,249.5,29Zm.2-1.29a.36.36,0,0,1-.36.32h0L248.5,28a.36.36,0,1,1,.07-.71l.81.08A.36.36,0,0,1,249.7,27.74Zm0-2.62a.36.36,0,0,1-.32.39l-.81.09h0a.36.36,0,0,1,0-.71l.81-.09A.36.36,0,0,1,249.69,25.13Zm-.21-1.29a.36.36,0,0,1-.27.43l-.8.17h-.08a.36.36,0,0,1-.08-.71l.8-.17A.36.36,0,0,1,249.48,23.84Zm-.79-1.49a.36.36,0,0,1,.22.68l-.77.25-.11,0a.36.36,0,0,1-.11-.7Zm-1.24-.84.74-.33a.36.36,0,0,1,.29.65l-.74.33a.36.36,0,0,1-.29-.65Zm-1.26-2,.66-.48a.36.36,0,0,1,.42.58l-.66.48a.36.36,0,0,1-.42-.58Zm-.78-.9L246,18a.36.36,0,1,1,.48.53l-.6.55a.36.36,0,1,1-.48-.53Zm-.87-.81.54-.61a.36.36,0,0,1,.53.48l-.54.61a.36.36,0,0,1-.53-.48Zm-.95-.72.48-.66a.36.36,0,0,1,.58.42l-.48.66a.36.36,0,0,1-.58-.42ZM241.5,16l.33-.74a.36.36,0,1,1,.65.29l-.33.74a.36.36,0,1,1-.65-.29Zm-1.12-.39.25-.77a.36.36,0,0,1,.68.22l-.25.77a.36.36,0,0,1-.34.25l-.11,0A.36.36,0,0,1,240.38,15.57Zm-1.16-.27.17-.8a.36.36,0,1,1,.7.15l-.17.8a.36.36,0,0,1-.35.28h-.07A.36.36,0,0,1,239.22,15.3ZM238,15.16l.08-.81a.36.36,0,1,1,.71.07l-.08.81a.36.36,0,0,1-.36.32h0A.36.36,0,0,1,238,15.16ZM221.26,3.92a3.46,3.46,0,0,0-3.52,3.39.36.36,0,0,1-.36.35h0a.36.36,0,0,1-.35-.36,4.17,4.17,0,0,1,4.25-4.09.36.36,0,0,1,0,.72ZM261,8a.36.36,0,0,1-.32.39h0a.36.36,0,0,1-.36-.33A8.12,8.12,0,0,0,251.47.75.36.36,0,1,1,251.4,0,8.82,8.82,0,0,1,261,8ZM222.65.85a8.12,8.12,0,0,0-8.26,8,.36.36,0,0,1-.36.35h0a.36.36,0,0,1-.35-.36A8.83,8.83,0,0,1,222.5.13h.17A.36.36,0,0,1,223,.5.35.35,0,0,1,222.65.85Zm35.13,6a.36.36,0,0,1-.32.39h0a.36.36,0,0,1-.36-.33,3.46,3.46,0,0,0-3.76-3.13.36.36,0,0,1-.07-.71,4.17,4.17,0,0,1,4.54,3.77ZM253.34,16a.36.36,0,0,0,.23.08h0a.36.36,0,0,0,.24-.13,4.78,4.78,0,0,0-.47-6.53l.1-.12a1.2,1.2,0,0,0-1.85-1.51l-.09.11,0,0a4.78,4.78,0,0,0-6.73.69.36.36,0,0,0,.05.5l4,3.25-.7.86a17.12,17.12,0,0,0-9.38-3.81V8.14h1a.62.62,0,0,0,.62-.62h0v-2a.62.62,0,0,0-.62-.62h0l-5,0a.62.62,0,0,0-.62.62v2a.62.62,0,0,0,.62.62h.88V9.36a17.12,17.12,0,0,0-9.26,3.85l-.71-.86,4-3.27a.36.36,0,0,0,0-.5,4.78,4.78,0,0,0-6.73-.64l-.1.09-.14-.18a1.08,1.08,0,0,0-1.58-.16,1.25,1.25,0,0,0-.15,1.68h0l.1.13a4.77,4.77,0,0,0-.41,6.52.36.36,0,0,0,.5,0L225,12.81l.72.87a17.17,17.17,0,0,0,.42,26l-1.84,3.12a1.14,1.14,0,0,0,2,1.14L228,41a17.09,17.09,0,0,0,9.21,2.68h.05a17.09,17.09,0,0,0,9.28-2.76l1.69,2.91h0a1.14,1.14,0,0,0,2-1.15l-1.82-3.14a17.17,17.17,0,0,0,.24-25.92l.71-.88ZM221.48,8.24a.43.43,0,0,1,.64.06l.09.11-.7.61-.09-.11A.5.5,0,0,1,221.48,8.24Zm-.55,7a4.07,4.07,0,0,1,.76-5.44l1.64-1.35a4,4,0,0,1,2.58-.93l.4,0a4,4,0,0,1,2.51,1.19Zm15.36-6V8.14H238V9.26Zm-1.51-1.83V5.64l4.83,0v1.8h-4.83Zm-9.06,36.1a.43.43,0,0,1-.74-.42l1.76-3,.69.51Zm23.91-.5a.43.43,0,0,1-.74.43l-1.72-2.95.69-.51Zm4.11-16.61A16.5,16.5,0,0,1,237.3,43h-.05a16.49,16.49,0,0,1-.05-33h.05A16.51,16.51,0,0,1,253.74,26.42ZM252.18,8.21a.48.48,0,0,1,.68-.07.48.48,0,0,1,.07.68l-.09.11-.74-.61Zm-6.6.51a4.07,4.07,0,0,1,5.48-.32l.3.24h0l1.3,1.06h0l0,0a4.07,4.07,0,0,1,.8,5.43Z"/><circle class="g" cx="237.25" cy="26.48" r="0.87" transform="translate(-0.08 0.73) rotate(-0.18)"/><path class="h" d="M222,25.75h0a.4.4,0,0,1-.37-.43,15.71,15.71,0,0,1,.34-2.29.4.4,0,0,1,.78.18,15,15,0,0,0-.32,2.17A.4.4,0,0,1,222,25.75Zm1.11-4.7a.4.4,0,0,1-.37-.55,15.66,15.66,0,0,1,14.47-9.72h0a.4.4,0,0,1,0,.8,14.86,14.86,0,0,0-13.73,9.22A.4.4,0,0,1,223.1,21.05Z"/></svg>