<svg xmlns="http://www.w3.org/2000/svg" xmlns:xlink="http://www.w3.org/1999/xlink" preserveAspectRatio="xMidYMid" width="23.031" height="24" viewBox="0 0 23.031 24">
  <defs>
    <style>
      .cls-1 {
        fill: #fff;
        fill-rule: evenodd;
      }
    </style>
  </defs>
  <path d="M7.490,23.200 C2.898,21.412 -0.355,16.457 0.032,11.404 C0.133,5.223 5.696,-0.191 11.746,0.015 C14.645,-0.122 17.370,1.167 19.591,2.977 C18.643,4.077 17.662,5.137 16.613,6.128 C13.944,4.243 10.148,3.705 7.479,5.881 C3.660,8.580 3.486,14.950 7.159,17.855 C10.731,21.166 17.482,19.522 18.469,14.452 C16.232,14.417 13.989,14.452 11.752,14.377 C11.746,13.014 11.740,11.650 11.746,10.287 C15.486,10.275 19.226,10.270 22.972,10.298 C23.196,13.507 22.781,16.921 20.852,19.574 C17.931,23.773 12.066,24.999 7.490,23.200 Z" class="cls-1"/>
</svg>
