<svg id="sms-icon" xmlns="http://www.w3.org/2000/svg" width="19.99" height="20.98" viewBox="0 0 19.99 20.98">
  <defs>
    <style>
      .cls-1 {
        fill: #fff;
      }
    </style>
  </defs>
  <title>sms</title>
  <path id="sms" class="cls-1" d="M9.48,16.79C8.58,18.13,7,21,5.32,21c1.32-1.14.93-5.23.25-5.49C2.29,14.21,0,11.38,0,8.1,0,3.63,4.25,0,9.5,0S19,3.63,19,8.1c0,.19,0,.37,0,.55A7.9,7.9,0,0,0,14,7c-3.86,0-7,2.53-7,5.63A5.32,5.32,0,0,0,9.48,16.79Zm7,0c-.43.15-.67,2.49.16,3.14-1.43,0-2.65-2.79-3-2.79-2.37,0-5.6-2-5.6-4.57S10.68,8,14,8s6,2.07,6,4.63C20,14.49,18.55,16.11,16.47,16.84ZM12,13a1,1,0,1,0-1,1A1,1,0,0,0,12,13Zm3,0a1,1,0,1,0-1,1A1,1,0,0,0,15,13Zm2,1a1,1,0,1,0-1-1A1,1,0,0,0,17,14Z"/>
</svg>
