<svg id="linked-in" xmlns="http://www.w3.org/2000/svg" width="16" height="15.28" viewBox="0 0 16 15.28">
  <defs>
    <style>
      .cls-1 {
        fill: #fff;
      }
    </style>
  </defs>
  <path id="linked-in-path" class="cls-1" d="M0,1.78A1.66,1.66,0,0,1,.54.5,2,2,0,0,1,1.95,0,1.92,1.92,0,0,1,3.32.49a1.74,1.74,0,0,1,.54,1.33,1.63,1.63,0,0,1-.52,1.24,2,2,0,0,1-1.42.51h0A1.89,1.89,0,0,1,.52,3.06,1.71,1.71,0,0,1,0,1.78ZM.2,15.28V5H3.63V15.28Zm5.33,0H9V9.53a2.22,2.22,0,0,1,.12-.83,2.24,2.24,0,0,1,.66-.89,1.68,1.68,0,0,1,1.1-.36q1.73,0,1.73,2.33v5.51H16V9.37A5,5,0,0,0,14.92,5.9a3.69,3.69,0,0,0-2.86-1.18A3.5,3.5,0,0,0,9,6.44v0h0l0,0V5H5.53q0,.49,0,3.07T5.53,15.28Z"/>
</svg>
