<svg id="snapchat" xmlns="http://www.w3.org/2000/svg" width="15.93" height="14.98" viewBox="0 0 15.93 14.98">
  <defs>
    <style>
      .cls-1 {
        fill: #fff;
      }
    </style>
  </defs>
  <path id="snapchat-path" data-name="snapchat" class="cls-1" d="M15.62,11.18a4.61,4.61,0,0,1-3.13-2.63v0A.66.66,0,0,1,12.41,8c.12-.27.56-.42.86-.51l.23-.08A1.79,1.79,0,0,0,14.13,7a.6.6,0,0,0,.19-.44A.69.69,0,0,0,13.82,6a.91.91,0,0,0-.35-.07.77.77,0,0,0-.32.07,1.81,1.81,0,0,1-.66.19.6.6,0,0,1-.22,0l0-.31v0a8,8,0,0,0-.2-3.23,4.36,4.36,0,0,0-1-1.4A4.07,4.07,0,0,0,9.94.38,4.64,4.64,0,0,0,8.12,0H7.81A4.62,4.62,0,0,0,6,.39a4.06,4.06,0,0,0-1.16.77,4.35,4.35,0,0,0-1,1.4,7.94,7.94,0,0,0-.2,3.22h0l0,.35a.63.63,0,0,1-.26,0A1.73,1.73,0,0,1,2.7,6a.63.63,0,0,0-.27-.06A1,1,0,0,0,2,6.07a.66.66,0,0,0-.34.43.6.6,0,0,0,.23.56,1.94,1.94,0,0,0,.59.34l.23.08c.29.09.74.24.86.51a.66.66,0,0,1-.08.54v0a5.25,5.25,0,0,1-.8,1.24,4.52,4.52,0,0,1-1,.86,3.56,3.56,0,0,1-1.36.53.37.37,0,0,0-.31.39.49.49,0,0,0,0,.16H0a1,1,0,0,0,.54.46,6.16,6.16,0,0,0,1.56.41,1.91,1.91,0,0,1,.1.34c0,.12.05.24.09.37a.41.41,0,0,0,.43.31,2.05,2.05,0,0,0,.37-.05,4.11,4.11,0,0,1,.84-.1,3.65,3.65,0,0,1,.6.05,2.83,2.83,0,0,1,1.12.58,3.62,3.62,0,0,0,2.2.86h.2a3.61,3.61,0,0,0,2.2-.86h0a2.84,2.84,0,0,1,1.12-.58,3.65,3.65,0,0,1,.6-.05,4.18,4.18,0,0,1,.84.09,2,2,0,0,0,.37,0h0a.4.4,0,0,0,.41-.31c0-.13.06-.25.09-.37a1.94,1.94,0,0,1,.09-.34,6.17,6.17,0,0,0,1.56-.41,1,1,0,0,0,.54-.46.48.48,0,0,0,0-.16A.37.37,0,0,0,15.62,11.18Z"/>
</svg>
